<svg width="49" height="60" viewBox="0 0 49 60" fill="none" xmlns="http://www.w3.org/2000/svg">
<path d="M24.5 17.3077V0H4.59375C3.37541 0 2.20697 0.486263 1.34548 1.35181C0.483982 2.21737 0 3.39131 0 4.61538V55.3846C0 56.6087 0.483982 57.7826 1.34548 58.6482C2.20697 59.5137 3.37541 60 4.59375 60H44.4062C45.6246 60 46.793 59.5137 47.6545 58.6482C48.516 57.7826 49 56.6087 49 55.3846V23.0769H30.2422C28.7193 23.0769 27.2587 22.4691 26.1818 21.3872C25.105 20.3052 24.5 18.8378 24.5 17.3077ZM12.6328 29.2308H36.3672C36.8748 29.2308 37.3617 29.4334 37.7206 29.794C38.0796 30.1547 38.2812 30.6438 38.2812 31.1538C38.2812 31.6639 38.0796 32.153 37.7206 32.5137C37.3617 32.8743 36.8748 33.0769 36.3672 33.0769H12.6328C12.1252 33.0769 11.6383 32.8743 11.2794 32.5137C10.9204 32.153 10.7188 31.6639 10.7188 31.1538C10.7188 30.6438 10.9204 30.1547 11.2794 29.794C11.6383 29.4334 12.1252 29.2308 12.6328 29.2308ZM10.7188 40.3846C10.7188 39.3231 11.5763 38.4615 12.6328 38.4615H36.3672C36.8748 38.4615 37.3617 38.6641 37.7206 39.0248C38.0796 39.3854 38.2812 39.8746 38.2812 40.3846C38.2812 40.8946 38.0796 41.3838 37.7206 41.7444C37.3617 42.1051 36.8748 42.3077 36.3672 42.3077H12.6328C11.5763 42.3077 10.7188 41.4462 10.7188 40.3846ZM12.6328 47.6923H36.3672C36.8748 47.6923 37.3617 47.8949 37.7206 48.2556C38.0796 48.6162 38.2812 49.1054 38.2812 49.6154C38.2812 50.1254 38.0796 50.6146 37.7206 50.9752C37.3617 51.3359 36.8748 51.5385 36.3672 51.5385H12.6328C12.1252 51.5385 11.6383 51.3359 11.2794 50.9752C10.9204 50.6146 10.7188 50.1254 10.7188 49.6154C10.7188 49.1054 10.9204 48.6162 11.2794 48.2556C11.6383 47.8949 12.1252 47.6923 12.6328 47.6923ZM28.3281 17.3077V0.713847L48.1762 19.2308H30.2422C29.1856 19.2308 28.3281 18.3692 28.3281 17.3077Z" fill="black" fill-opacity="0.4"/>
</svg>
